<?xml version="1.0" encoding="UTF-8" standalone="no"?>
<!DOCTYPE svg PUBLIC "-//W3C//DTD SVG 1.1//EN" "http://www.w3.org/Graphics/SVG/1.1/DTD/svg11.dtd">
<svg version="1.1" xmlns="http://www.w3.org/2000/svg" xmlns:xlink="http://www.w3.org/1999/xlink" preserveAspectRatio="xMidYMid meet" viewBox="0 0 640 640" width="60" height="60"><defs><path d="M307.2 379.58C307.2 330.74 307.2 303.6 307.2 298.18C307.72 281.76 321.44 268.87 337.86 269.38C337.86 269.38 337.86 269.38 337.86 269.38C354.27 268.87 367.99 281.76 368.51 298.18C368.51 303.6 368.51 330.74 368.51 379.58" id="bMGwPD8o6"></path><path d="M368.51 379.58C368.51 347.67 368.51 329.95 368.51 326.4C368.9 310.13 382.38 297.24 398.66 297.6C398.66 297.6 398.66 297.6 398.66 297.6C414.93 297.24 428.42 310.13 428.8 326.4C428.8 329.97 428.8 347.8 428.8 379.9" id="b1x7294ao5"></path><path d="M428.8 379.58C428.8 358.96 428.8 347.51 428.8 345.22C428.8 329.31 441.69 316.42 457.6 316.42C457.6 316.42 457.6 316.42 457.6 316.42C473.51 316.42 486.4 329.31 486.4 345.22C486.4 348.56 486.4 375.28 486.4 378.62C486.4 418.62 483.39 570.62 457.6 603.58C438.15 603.58 282.55 603.58 263.1 603.58C263.1 603.58 183.49 467.2 158.4 391.1C142.53 342.66 193.92 328.7 213.89 369.54C227.52 397.44 249.6 437.31 249.6 437.31C249.6 412.07 249.6 210.14 249.6 184.9C249.6 168.99 262.49 156.1 278.4 156.1C278.4 156.1 278.4 156.1 278.4 156.1C294.31 156.1 307.2 168.99 307.2 184.9C307.2 197.88 307.2 262.77 307.2 379.58" id="dHoUjA0AQ"></path><path d="M275.2 110.78L275.2 8.38" id="b3YW8NjrK9"></path><path d="M204.8 187.58L102.4 187.58" id="adZoeLRUd"></path><path d="M448 187.58L345.6 187.58" id="e4aOcEexL"></path><path d="M221.76 125.63L171.2 75.07" id="b24v7833ry"></path></defs><g><g><g><use xlink:href="#bMGwPD8o6" opacity="1" fill="#000000" fill-opacity="0"></use><g><use xlink:href="#bMGwPD8o6" opacity="1" fill-opacity="0" stroke="#f87c56" stroke-width="17" stroke-opacity="1"></use></g></g><g><use xlink:href="#b1x7294ao5" opacity="1" fill="#000000" fill-opacity="0"></use><g><use xlink:href="#b1x7294ao5" opacity="1" fill-opacity="0" stroke="#f87c56" stroke-width="17" stroke-opacity="1"></use></g></g><g><use xlink:href="#dHoUjA0AQ" opacity="1" fill="#000000" fill-opacity="0"></use><g><use xlink:href="#dHoUjA0AQ" opacity="1" fill-opacity="0" stroke="#f87c56" stroke-width="17" stroke-opacity="1"></use></g></g><g><use xlink:href="#b3YW8NjrK9" opacity="1" fill="#000000" fill-opacity="0"></use><g><use xlink:href="#b3YW8NjrK9" opacity="1" fill-opacity="0" stroke="#f87c56" stroke-width="17" stroke-opacity="1"></use></g></g><g><use xlink:href="#adZoeLRUd" opacity="1" fill="#000000" fill-opacity="0"></use><g><use xlink:href="#adZoeLRUd" opacity="1" fill-opacity="0" stroke="#f87c56" stroke-width="17" stroke-opacity="1"></use></g></g><g><use xlink:href="#e4aOcEexL" opacity="1" fill="#000000" fill-opacity="0"></use><g><use xlink:href="#e4aOcEexL" opacity="1" fill-opacity="0" stroke="#f87c56" stroke-width="17" stroke-opacity="1"></use></g></g><g><use xlink:href="#b24v7833ry" opacity="1" fill="#000000" fill-opacity="0"></use><g><use xlink:href="#b24v7833ry" opacity="1" fill-opacity="0" stroke="#f87c56" stroke-width="17" stroke-opacity="1"></use></g></g></g></g></svg>