<?xml version="1.0" encoding="UTF-8"?> <!-- Generator: Adobe Illustrator 25.0.1, SVG Export Plug-In . SVG Version: 6.00 Build 0) --> <svg xmlns="http://www.w3.org/2000/svg" xmlns:xlink="http://www.w3.org/1999/xlink" id="Layer_1" x="0px" y="0px" viewBox="0 0 100.8 100.8" style="enable-background:new 0 0 100.8 100.8;" xml:space="preserve"> <style type="text/css"> .st0{fill:#BA1818;} </style> <g> <path class="st0" d="M91.8,59.8c-1.4-2-3.9-2.6-6-1.8c-0.1-0.9-0.4-1.7-0.9-2.4c-1.6-2.3-4.8-2.9-7.1-1.3l-0.8,0.6 c-0.1-0.8-0.4-1.6-0.9-2.3c-1.6-2.3-4.8-2.9-7.1-1.3c0,0,0,0-0.1,0.1c0,0,0,0,0,0c-6.7,5.6-14.9,11.4-17,11.4 c-1.6,0-6.3-2.6-10.1-4.8c-4.8-2.7-9.4-5.3-12-5.5C24.8,52.2,9.7,61,8,62c-0.7,0.4-0.9,1.3-0.5,2c0.4,0.7,1.3,0.9,2,0.5 c6.1-3.6,16.9-9.2,20-9c2,0.2,6.7,2.8,10.8,5.1c5.5,3.1,9,5,11.2,5.1c0.1,0,0.2,0,0.3,0h10c1.8,0,3.3,1.5,3.3,3.3s-1.5,3.3-3.3,3.3 c0,0,0,0,0,0c0,0,0,0-0.1,0c-0.1,0-9.8,0.7-13.9,0c-3.8-0.6-8.6-4.9-8.6-4.9c-0.6-0.5-1.5-0.5-2.1,0.1c-0.5,0.6-0.5,1.5,0.1,2.1 c0.2,0.2,5.5,4.9,10.1,5.6c1.5,0.2,3.7,0.3,5.8,0.3c4.1,0,8.4-0.3,8.7-0.3c0,0,0,0,0,0c3.4-0.1,6.1-2.8,6.1-6.2 c0-3.4-2.8-6.2-6.2-6.2h-3.4c4.9-3.1,10.6-7.7,12.2-9.1c1-0.7,2.4-0.4,3.1,0.6c0.3,0.5,0.5,1.1,0.4,1.7s-0.4,1.1-0.9,1.4 c0,0,0,0-0.1,0.1c0,0-0.1,0.1-0.1,0.1c0,0,0,0.1-0.1,0.1c0,0-0.1,0.1-0.1,0.1c0,0,0,0.1-0.1,0.1c0,0-0.1,0.1-0.1,0.1 c0,0,0,0.1,0,0.1c0,0,0,0.1,0,0.1c0,0,0,0.1,0,0.1c0,0,0,0.1,0,0.1c0,0,0,0.1,0,0.1c0,0,0,0.1,0,0.1c0,0,0,0.1,0,0.1 c0,0,0,0.1,0,0.1c0,0,0,0.1,0.1,0.1c0,0,0,0.1,0.1,0.1c0,0,0,0,0,0c0,0,0,0,0,0c0,0,0,0,0.1,0.1c0,0.1,0.1,0.1,0.2,0.2 c0,0,0.1,0,0.1,0.1c0.1,0,0.1,0.1,0.2,0.1c0,0,0.1,0,0.1,0.1c0.1,0,0.1,0.1,0.2,0.1c0,0,0.1,0,0.1,0c0.1,0,0.2,0,0.3,0c0,0,0,0,0,0 c0,0,0,0,0,0c0.1,0,0.2,0,0.3,0c0,0,0.1,0,0.1,0c0.1,0,0.2-0.1,0.3-0.2l4.6-3c1-0.7,2.4-0.5,3.1,0.5c0.3,0.5,0.5,1.1,0.4,1.6 c-0.1,0.6-0.4,1.1-0.9,1.4l-1.5,1c-0.7,0.5-0.8,1.4-0.4,2c0.3,0.4,0.7,0.6,1.2,0.6c0.3,0,0.6-0.1,0.8-0.3l1.5-1l2.7-1.8 c1-0.7,2.4-0.5,3.1,0.5c0.7,1,0.5,2.4-0.5,3.1c0,0,0,0,0,0C73.1,75.7,55.2,87.1,52.5,87.2c-2,0-6.3-2.6-10.1-4.9 c-4.3-2.6-8.4-5-11.2-5.4c-5.7-0.8-14.6,5.9-15.6,6.6c-0.6,0.5-0.8,1.4-0.3,2c0.5,0.6,1.4,0.8,2,0.3c2.4-1.9,9.5-6.6,13.4-6.1 c2.3,0.3,6.5,2.8,10.1,5c4.5,2.7,8.8,5.3,11.6,5.3c4.8,0,32.5-19.2,38-23.1c0.1-0.1,0.2-0.1,0.2-0.2C92.8,65.1,93.3,62.1,91.8,59.8 z"></path> <path class="st0" d="M40.4,33.1c5.8,0,10.6-4.7,10.6-10.6S46.3,12,40.4,12s-10.6,4.7-10.6,10.6S34.6,33.1,40.4,33.1z M40.4,14.9 c4.2,0,7.7,3.4,7.7,7.7s-3.4,7.7-7.7,7.7s-7.7-3.4-7.7-7.7S36.2,14.9,40.4,14.9z"></path> <path class="st0" d="M66.6,30.7c4.5,0,8.1-3.6,8.1-8.1s-3.6-8.1-8.1-8.1s-8.1,3.6-8.1,8.1S62.1,30.7,66.6,30.7z M66.6,17.4 c2.9,0,5.2,2.3,5.2,5.2s-2.3,5.2-5.2,5.2s-5.2-2.3-5.2-5.2S63.7,17.4,66.6,17.4z"></path> <path class="st0" d="M42.5,45.2c0,5.8,4.7,10.6,10.6,10.6c5.8,0,10.6-4.7,10.6-10.6s-4.7-10.6-10.6-10.6 C47.3,34.6,42.5,39.4,42.5,45.2z M53.1,37.5c4.2,0,7.7,3.4,7.7,7.7s-3.4,7.7-7.7,7.7s-7.7-3.4-7.7-7.7S48.9,37.5,53.1,37.5z"></path> </g> </svg> 