<?xml version="1.0" encoding="UTF-8" standalone="no"?>
<!DOCTYPE svg PUBLIC "-//W3C//DTD SVG 1.1//EN" "http://www.w3.org/Graphics/SVG/1.1/DTD/svg11.dtd">
<svg version="1.1" xmlns="http://www.w3.org/2000/svg" xmlns:xlink="http://www.w3.org/1999/xlink" preserveAspectRatio="xMidYMid meet" viewBox="0 0 1864 640" width="1864" height="640"><defs><path d="M404.41 57.24L452 143.48L471.73 124.86L479.62 133.66L480.74 116.42L480.65 116.44L496.6 101.4L496.6 101.4L404.41 57.24Z" id="b9BzVUsO3"></path><path d="M471.73 124.86L421.09 72.31L480.74 116.42L479.62 133.66L479.62 133.66L471.73 124.86Z" id="c4ocKHkLLM"></path><path d="M493.91 147.91C493.91 147.91 569.17 223.16 535.2 256.71C504.6 286.94 437.77 228.64 457.14 200.66C474.67 175.35 532.81 259.61 482.92 293.53C379.25 364.05 161.38 209.6 103.36 8.05" id="c2cjXfCmTw"></path><path d="M475.21 372.32L475.21 484.23L596.09 484.23" id="a33TjTlO0"></path><path d="M475.21 484.21C475.21 484.21 497.77 416.14 512.05 416.14C512.05 416.14 526.85 458.1 541.65 458.1C541.65 458.1 562.81 388.16 576.02 388.16" id="h4MyOdV5U5"></path><path d="M565.02 533.02C558.28 539.76 554.54 543.5 553.79 544.25C551.94 546.42 552.19 549.68 554.36 551.54C556.3 553.2 559.15 553.2 561.09 551.54C562.49 550.16 573.71 539.17 575.12 537.79C578.47 534.14 578.23 528.46 574.58 525.1C571.14 521.94 565.86 521.94 562.42 525.1C560.95 526.57 549.18 538.32 547.71 539.79C542.68 544.61 542.52 552.6 547.35 557.63C552.18 562.65 560.17 562.81 565.19 557.98C565.31 557.87 565.43 557.75 565.55 557.63C566.37 556.81 570.48 552.7 577.87 545.31" id="b175Zq02Xu"></path><path d="M235.37 479.34L312.84 442.01L390.32 479.34L312.84 516.67L312.84 516.67L235.37 479.34Z" id="bOmw0Y5pQ"></path><path d="M235.37 567.17L312.84 529.83L390.32 567.17L312.84 604.5L312.84 604.5L235.37 567.17Z" id="a17t5KaDam"></path><path d="M312.84 631.95L235.37 594.61L235.37 479.34L312.84 516.67L312.84 516.67L312.84 631.95Z" id="d63a0bW3a"></path><path d="M390.32 479.34L390.32 594.61L312.84 631.95L312.84 516.67L312.84 516.67L390.32 479.34Z" id="b3q3cbbiTM"></path><path d="M400.95 542.88C400.95 542.88 400.95 542.88 400.95 542.88C404.68 554.32 406.76 560.67 407.17 561.94C407.17 561.94 407.17 561.94 407.17 561.94C393.94 566.26 386.59 568.66 385.12 569.14C385.12 569.14 385.12 569.14 385.12 569.14C381.39 557.7 379.32 551.35 378.9 550.07C378.9 550.07 378.9 550.07 378.9 550.07C392.13 545.76 399.48 543.36 400.95 542.88Z" id="b2SaZ8Y04g"></path><path d="M441.11 578.91C447.75 599.28 436.7 621.15 416.42 627.75C396.15 634.36 374.33 623.21 367.7 602.84C361.06 582.47 372.11 560.6 392.39 554C412.66 547.39 434.47 558.55 441.11 578.91Z" id="a7f61AizgI"></path><path d="M435.63 580.7C441.27 598.03 431.87 616.63 414.63 622.25C397.38 627.87 378.83 618.38 373.18 601.05C367.53 583.72 376.94 565.12 394.18 559.5C411.43 553.88 429.98 563.37 435.63 580.7Z" id="d1poBwl99X"></path><path d="M398.88 573.89L404.41 590.87L416.95 586.78" id="d24A2kouy"></path><path d="M1337.57 479.96C1331.99 479.96 1327.47 484.48 1327.47 490.06C1327.47 495.63 1331.99 500.15 1337.57 500.15C1343.14 500.15 1347.66 495.63 1347.66 490.06C1347.66 484.48 1343.14 479.96 1337.57 479.96Z" id="e1lPzy5Blr"></path><path d="M1362.45 455.46C1356.88 455.46 1352.36 459.98 1352.36 465.56C1352.36 471.14 1356.88 475.66 1362.45 475.66C1368.03 475.66 1372.55 471.14 1372.55 465.56C1372.55 459.98 1368.03 455.46 1362.45 455.46Z" id="a3ytOqCSUB"></path><path d="M1362.45 504.89C1356.88 504.89 1352.36 509.41 1352.36 514.99C1352.36 520.56 1356.88 525.08 1362.45 525.08C1368.03 525.08 1372.55 520.56 1372.55 514.99C1372.55 509.41 1368.03 504.89 1362.45 504.89Z" id="a1GZMzJZlP"></path><path d="M1344.53 497.36L1355.48 508.32" id="ay06raOfb"></path><path d="M1355.73 472.23L1344.87 483.1" id="emTzrOVNq"></path><path d="M1603.92 274.88C1609.83 274.88 1612.79 277.84 1612.79 283.75C1612.79 365.17 1612.79 410.4 1612.79 419.45C1612.79 425.36 1609.83 428.31 1603.92 428.31C1481.32 428.31 1413.21 428.31 1399.59 428.31C1393.68 428.31 1390.72 425.36 1390.72 419.45C1390.72 338.03 1390.72 292.8 1390.72 283.75C1390.72 277.84 1393.68 274.88 1399.59 274.88C1522.19 274.88 1590.3 274.88 1603.92 274.88Z" id="b38TtgbsTr"></path><path d="M1607.1 273.88C1610.58 273.88 1613.4 276.7 1613.4 280.17C1613.4 280.17 1613.4 280.17 1613.4 280.17C1613.4 280.37 1613.4 281.37 1613.4 283.16L1390.12 283.16C1390.12 281.37 1390.12 280.37 1390.12 280.17C1390.12 276.7 1392.93 273.88 1396.4 273.88C1396.4 273.88 1586.03 273.88 1607.1 273.88Z" id="cB2jQDhge"></path><path d="M1442.75 283.17L1442.75 428.3" id="g4IoTm97Tl"></path><path d="M1327.47 2.08C1297.85 2.08 1273.84 26.09 1273.84 55.72C1273.84 85.34 1297.85 109.36 1327.47 109.36C1357.1 109.36 1381.11 85.34 1381.11 55.72C1381.11 26.09 1357.1 2.08 1327.47 2.08Z" id="d2T3hF1Ad0"></path><path d="M1340.12 55.72C1340.12 85.34 1334.19 109.36 1326.87 109.36C1319.54 109.36 1313.61 85.34 1313.61 55.72C1313.61 26.09 1319.54 2.08 1326.87 2.08C1334.19 2.08 1340.12 26.09 1340.12 55.72Z" id="b2yQfl46RQ"></path><path d="M1361.82 55.72C1361.82 85.34 1346.17 109.36 1326.87 109.36C1307.56 109.36 1291.91 85.34 1291.91 55.72C1291.91 26.09 1307.56 2.08 1326.87 2.08C1346.17 2.08 1361.82 26.09 1361.82 55.72Z" id="a2pGaWm2aC"></path><path d="M1273.84 55.12L1381.11 55.12" id="a55TMTINp9"></path><path d="M1653.29 139.61C1653.29 139.61 1653.29 139.61 1653.29 139.61C1653.29 185.57 1653.29 211.1 1653.29 216.21C1653.29 216.21 1653.29 216.21 1653.29 216.21C1602.48 216.21 1574.26 216.21 1568.61 216.21C1568.61 216.21 1568.61 216.21 1568.61 216.21C1568.61 170.25 1568.61 144.72 1568.61 139.61C1568.61 139.61 1568.61 139.61 1568.61 139.61C1619.42 139.61 1647.65 139.61 1653.29 139.61Z" id="h38f2BNKQW"></path><path d="M1582.53 131.54L1582.53 147.71" id="b489KyrIiS"></path><path d="M1610.75 131.54L1610.75 147.71" id="aHVkjpzZW"></path><path d="M1638.96 131.54L1638.96 147.71" id="a4ZWgOfeZ4"></path><path d="M1638.96 162.37C1638.96 162.37 1638.96 162.37 1638.96 162.37C1638.96 185.4 1638.96 198.19 1638.96 200.75C1638.96 200.75 1638.96 200.75 1638.96 200.75C1605.1 200.75 1586.29 200.75 1582.53 200.75C1582.53 200.75 1582.53 200.75 1582.53 200.75C1582.53 177.72 1582.53 164.93 1582.53 162.37C1582.53 162.37 1582.53 162.37 1582.53 162.37C1616.39 162.37 1635.2 162.37 1638.96 162.37Z" id="c2inrNRtS8"></path><path d="M1556.98 411.29L1664.91 359.29L1772.83 411.29L1664.91 463.3L1664.91 463.3L1556.98 411.29Z" id="bT1TbhDsU"></path><path d="M1556.98 533.63L1664.91 481.63L1772.83 533.63L1664.91 585.64L1664.91 585.64L1556.98 533.63Z" id="efJrEO9zn"></path><path d="M1664.91 623.86L1556.98 571.87L1556.98 411.29L1664.91 463.3L1664.91 463.3L1664.91 623.86Z" id="a9GWc9Mrt"></path><path d="M1772.83 411.29L1772.83 571.87L1664.91 623.86L1664.91 463.3L1664.91 463.3L1772.83 411.29Z" id="bjPgCd7cq"></path></defs><g><g><g><use xlink:href="#b9BzVUsO3" opacity="1" fill="#dceeff" fill-opacity="1"></use><g><use xlink:href="#b9BzVUsO3" opacity="1" fill-opacity="0" stroke="#000000" stroke-width="1" stroke-opacity="0"></use></g></g><g><use xlink:href="#c4ocKHkLLM" opacity="1" fill="#bbe0ff" fill-opacity="1"></use><g><use xlink:href="#c4ocKHkLLM" opacity="1" fill-opacity="0" stroke="#000000" stroke-width="1" stroke-opacity="0"></use></g></g><g><use xlink:href="#c2cjXfCmTw" opacity="1" fill="#000000" fill-opacity="0"></use><g><use xlink:href="#c2cjXfCmTw" opacity="1" fill-opacity="0" stroke="#a5b9d9" stroke-width="1" stroke-opacity="1"></use></g></g><g><use xlink:href="#a33TjTlO0" opacity="1" fill="#000000" fill-opacity="0"></use><g><use xlink:href="#a33TjTlO0" opacity="1" fill-opacity="0" stroke="#a5b9d9" stroke-width="1" stroke-opacity="1"></use></g></g><g><use xlink:href="#h4MyOdV5U5" opacity="1" fill="#000000" fill-opacity="0"></use><g><use xlink:href="#h4MyOdV5U5" opacity="1" fill-opacity="0" stroke="#a5b9d9" stroke-width="1" stroke-opacity="1"></use></g></g><g><use xlink:href="#b175Zq02Xu" opacity="1" fill="#000000" fill-opacity="0"></use><g><use xlink:href="#b175Zq02Xu" opacity="1" fill-opacity="0" stroke="#a5b9d9" stroke-width="1" stroke-opacity="1"></use></g></g><g><use xlink:href="#bOmw0Y5pQ" opacity="1" fill="#ffffff" fill-opacity="1"></use><g><use xlink:href="#bOmw0Y5pQ" opacity="1" fill-opacity="0" stroke="#000000" stroke-width="1" stroke-opacity="0"></use></g></g><g><use xlink:href="#a17t5KaDam" opacity="1" fill="#e4e8ea" fill-opacity="1"></use><g><use xlink:href="#a17t5KaDam" opacity="1" fill-opacity="0" stroke="#000000" stroke-width="1" stroke-opacity="0"></use></g></g><g><use xlink:href="#d63a0bW3a" opacity="1" fill="#e9f6ff" fill-opacity="1"></use><g><use xlink:href="#d63a0bW3a" opacity="1" fill-opacity="0" stroke="#000000" stroke-width="1" stroke-opacity="0"></use></g></g><g><use xlink:href="#b3q3cbbiTM" opacity="1" fill="#cae5ff" fill-opacity="1"></use><g><use xlink:href="#b3q3cbbiTM" opacity="1" fill-opacity="0" stroke="#000000" stroke-width="1" stroke-opacity="0"></use></g></g><g><use xlink:href="#b2SaZ8Y04g" opacity="1" fill="#7bb1ff" fill-opacity="1"></use><g><use xlink:href="#b2SaZ8Y04g" opacity="1" fill-opacity="0" stroke="#000000" stroke-width="1" stroke-opacity="0"></use></g></g><g><use xlink:href="#a7f61AizgI" opacity="1" fill="#7bb1ff" fill-opacity="1"></use><g><use xlink:href="#a7f61AizgI" opacity="1" fill-opacity="0" stroke="#000000" stroke-width="1" stroke-opacity="0"></use></g></g><g><use xlink:href="#d1poBwl99X" opacity="1" fill="#dceeff" fill-opacity="1"></use><g><use xlink:href="#d1poBwl99X" opacity="1" fill-opacity="0" stroke="#000000" stroke-width="1" stroke-opacity="0"></use></g></g><g><use xlink:href="#d24A2kouy" opacity="1" fill="#000000" fill-opacity="0"></use><g><use xlink:href="#d24A2kouy" opacity="1" fill-opacity="0" stroke="#7bb1ff" stroke-width="1" stroke-opacity="1"></use></g></g><g><use xlink:href="#e1lPzy5Blr" opacity="1" fill="#000000" fill-opacity="0"></use><g><use xlink:href="#e1lPzy5Blr" opacity="1" fill-opacity="0" stroke="#a5b9d9" stroke-width="1" stroke-opacity="1"></use></g></g><g><use xlink:href="#a3ytOqCSUB" opacity="1" fill="#000000" fill-opacity="0"></use><g><use xlink:href="#a3ytOqCSUB" opacity="1" fill-opacity="0" stroke="#a5b9d9" stroke-width="1" stroke-opacity="1"></use></g></g><g><use xlink:href="#a1GZMzJZlP" opacity="1" fill="#000000" fill-opacity="0"></use><g><use xlink:href="#a1GZMzJZlP" opacity="1" fill-opacity="0" stroke="#a5b9d9" stroke-width="1" stroke-opacity="1"></use></g></g><g><use xlink:href="#ay06raOfb" opacity="1" fill="#000000" fill-opacity="0"></use><g><use xlink:href="#ay06raOfb" opacity="1" fill-opacity="0" stroke="#a5b9d9" stroke-width="1" stroke-opacity="1"></use></g></g><g><use xlink:href="#emTzrOVNq" opacity="1" fill="#000000" fill-opacity="0"></use><g><use xlink:href="#emTzrOVNq" opacity="1" fill-opacity="0" stroke="#a5b9d9" stroke-width="1" stroke-opacity="1"></use></g></g><g><use xlink:href="#b38TtgbsTr" opacity="1" fill="#000000" fill-opacity="0"></use><g><use xlink:href="#b38TtgbsTr" opacity="1" fill-opacity="0" stroke="#a5b9d9" stroke-width="1" stroke-opacity="1"></use></g></g><g><use xlink:href="#cB2jQDhge" opacity="1" fill="#7bb1ff" fill-opacity="1"></use><g><use xlink:href="#cB2jQDhge" opacity="1" fill-opacity="0" stroke="#000000" stroke-width="1" stroke-opacity="0"></use></g></g><g><use xlink:href="#g4IoTm97Tl" opacity="1" fill="#000000" fill-opacity="0"></use><g><use xlink:href="#g4IoTm97Tl" opacity="1" fill-opacity="0" stroke="#a5b9d9" stroke-width="1" stroke-opacity="1"></use></g></g><g><use xlink:href="#d2T3hF1Ad0" opacity="1" fill="#000000" fill-opacity="0"></use><g><use xlink:href="#d2T3hF1Ad0" opacity="1" fill-opacity="0" stroke="#a5b9d9" stroke-width="1" stroke-opacity="1"></use></g></g><g><use xlink:href="#b2yQfl46RQ" opacity="1" fill="#000000" fill-opacity="0"></use><g><use xlink:href="#b2yQfl46RQ" opacity="1" fill-opacity="0" stroke="#a5b9d9" stroke-width="1" stroke-opacity="1"></use></g></g><g><use xlink:href="#a2pGaWm2aC" opacity="1" fill="#000000" fill-opacity="0"></use><g><use xlink:href="#a2pGaWm2aC" opacity="1" fill-opacity="0" stroke="#a5b9d9" stroke-width="1" stroke-opacity="1"></use></g></g><g><use xlink:href="#a55TMTINp9" opacity="1" fill="#000000" fill-opacity="0"></use><g><use xlink:href="#a55TMTINp9" opacity="1" fill-opacity="0" stroke="#a5b9d9" stroke-width="1" stroke-opacity="1"></use></g></g><g><use xlink:href="#h38f2BNKQW" opacity="1" fill="#000000" fill-opacity="0"></use><g><use xlink:href="#h38f2BNKQW" opacity="1" fill-opacity="0" stroke="#a5b9d9" stroke-width="1" stroke-opacity="1"></use></g></g><g><use xlink:href="#b489KyrIiS" opacity="1" fill="#000000" fill-opacity="0"></use><g><use xlink:href="#b489KyrIiS" opacity="1" fill-opacity="0" stroke="#a5b9d9" stroke-width="1" stroke-opacity="1"></use></g></g><g><use xlink:href="#aHVkjpzZW" opacity="1" fill="#000000" fill-opacity="0"></use><g><use xlink:href="#aHVkjpzZW" opacity="1" fill-opacity="0" stroke="#a5b9d9" stroke-width="1" stroke-opacity="1"></use></g></g><g><use xlink:href="#a4ZWgOfeZ4" opacity="1" fill="#000000" fill-opacity="0"></use><g><use xlink:href="#a4ZWgOfeZ4" opacity="1" fill-opacity="0" stroke="#a5b9d9" stroke-width="1" stroke-opacity="1"></use></g></g><g><use xlink:href="#c2inrNRtS8" opacity="1" fill="#000000" fill-opacity="0"></use><g><use xlink:href="#c2inrNRtS8" opacity="1" fill-opacity="0" stroke="#a5b9d9" stroke-width="1" stroke-opacity="1"></use></g></g><g><use xlink:href="#bT1TbhDsU" opacity="1" fill="#ffffff" fill-opacity="1"></use><g><use xlink:href="#bT1TbhDsU" opacity="1" fill-opacity="0" stroke="#000000" stroke-width="1" stroke-opacity="0"></use></g></g><g><use xlink:href="#efJrEO9zn" opacity="1" fill="#e4e8ea" fill-opacity="1"></use><g><use xlink:href="#efJrEO9zn" opacity="1" fill-opacity="0" stroke="#000000" stroke-width="1" stroke-opacity="0"></use></g></g><g><use xlink:href="#a9GWc9Mrt" opacity="1" fill="#e9f6ff" fill-opacity="1"></use><g><use xlink:href="#a9GWc9Mrt" opacity="1" fill-opacity="0" stroke="#000000" stroke-width="1" stroke-opacity="0"></use></g></g><g><use xlink:href="#bjPgCd7cq" opacity="1" fill="#cae5ff" fill-opacity="1"></use><g><use xlink:href="#bjPgCd7cq" opacity="1" fill-opacity="0" stroke="#000000" stroke-width="1" stroke-opacity="0"></use></g></g></g></g></svg>