<?xml version="1.0" encoding="UTF-8" standalone="no"?>
<!DOCTYPE svg PUBLIC "-//W3C//DTD SVG 1.1//EN" "http://www.w3.org/Graphics/SVG/1.1/DTD/svg11.dtd">
<svg version="1.1" xmlns="http://www.w3.org/2000/svg" xmlns:xlink="http://www.w3.org/1999/xlink" preserveAspectRatio="xMidYMid meet" viewBox="0 0 640 640" width="60" height="60"><defs><path d="M457.47 21.18C476.76 21.18 486.4 30.83 486.4 50.11C486.4 372.52 486.4 551.63 486.4 587.46C486.4 606.74 476.76 616.38 457.47 616.38C292.51 616.38 200.86 616.38 182.53 616.38C163.24 616.38 153.6 606.74 153.6 587.46C153.6 265.05 153.6 85.93 153.6 50.11C153.6 30.83 163.24 21.18 182.53 21.18C347.49 21.18 439.14 21.18 457.47 21.18Z" id="eBSO1yryC"></path><path d="M448 104.38C448 104.38 448 104.38 448 104.38C448 338.62 448 468.76 448 494.78C448 494.78 448 494.78 448 494.78C294.4 494.78 209.07 494.78 192 494.78C192 494.78 192 494.78 192 494.78C192 260.54 192 130.41 192 104.38C192 104.38 192 104.38 192 104.38C345.6 104.38 430.93 104.38 448 104.38Z" id="a1Xh1iaIM4"></path><path d="M294.4 65.98L352 65.98" id="b1N7DSPJHb"></path><path d="M323.2 520.38C303.76 520.38 288 536.14 288 555.58C288 575.02 303.76 590.78 323.2 590.78C342.64 590.78 358.4 575.02 358.4 555.58C358.4 536.14 342.64 520.38 323.2 520.38Z" id="b14NGdnB3O"></path></defs><g><g><g><use xlink:href="#eBSO1yryC" opacity="1" fill="#000000" fill-opacity="0"></use><g><use xlink:href="#eBSO1yryC" opacity="1" fill-opacity="0" stroke="#f87c56" stroke-width="17" stroke-opacity="1"></use></g></g><g><use xlink:href="#a1Xh1iaIM4" opacity="1" fill="#000000" fill-opacity="0"></use><g><use xlink:href="#a1Xh1iaIM4" opacity="1" fill-opacity="0" stroke="#f87c56" stroke-width="17" stroke-opacity="1"></use></g></g><g><use xlink:href="#b1N7DSPJHb" opacity="1" fill="#000000" fill-opacity="0"></use><g><use xlink:href="#b1N7DSPJHb" opacity="1" fill-opacity="0" stroke="#f87c56" stroke-width="17" stroke-opacity="1"></use></g></g><g><use xlink:href="#b14NGdnB3O" opacity="1" fill="#000000" fill-opacity="0"></use><g><use xlink:href="#b14NGdnB3O" opacity="1" fill-opacity="0" stroke="#f87c56" stroke-width="17" stroke-opacity="1"></use></g></g></g></g></svg>