<?xml version="1.0" encoding="UTF-8"?> <!-- Generator: Adobe Illustrator 25.0.1, SVG Export Plug-In . SVG Version: 6.00 Build 0) --> <svg xmlns="http://www.w3.org/2000/svg" xmlns:xlink="http://www.w3.org/1999/xlink" id="Слой_2_1_" x="0px" y="0px" viewBox="0 0 100 100" style="enable-background:new 0 0 100 100;" xml:space="preserve"> <style type="text/css"> .st0{fill:#BA1818;} </style> <path class="st0" d="M83.9,15.1c-1.5-1.5-3.6-2.3-5.7-2.1C66,13.9,54.6,19.2,46,27.9L44.9,29H30.1c-0.4,0-0.8,0.2-1.1,0.5l-15.6,16 c-0.6,0.6-0.6,1.5,0,2.1c0.3,0.3,0.7,0.4,1,0.4h14.4l3.9,3.8c-5.8,0.2-11.4,2.7-15.5,6.8C5,71.1,14.6,85.2,14.8,85.4 c0.5,0.7,1.4,0.8,2.1,0.4c0.4-0.3,0.6-0.7,0.6-1.2c0-4.8,4.5-9.4,9.3-9.4c4.8,0,8.6,3.9,8.6,8.7c0,0.8,0.7,1.5,1.5,1.5 c0.3,0,0.6-0.1,0.8-0.3c5.8-4.5,9.3-11.5,9.3-18.9l4,4v14.4c0,0.8,0.7,1.5,1.5,1.5c0.4,0,0.8-0.2,1.1-0.4l16-16 c0.3-0.3,0.4-0.6,0.4-1V54.1l1.2-1.1c8.7-8.6,13.9-20,14.8-32.2C86.2,18.7,85.4,16.6,83.9,15.1z M30.8,32h11.1l-13,13H18.1L30.8,32z M37.9,80.8c-1.3-5.1-5.9-8.7-11.2-8.7c-4.9,0-9.5,3.5-11.4,8c-1.8-4.4-3.2-12.1,4-19.3c4.3-4.4,10.4-6.5,16.5-5.8l8,8 C44.7,69.5,42.5,76.1,37.9,80.8z M67,67.9l-13,13V70.1l13-13V67.9z M69,50.9l-1.6,1.6l-0.1,0L52.5,67.4L31.6,46.5l14.9-14.9l0,0 l1.6-1.5c8.1-8.2,18.8-13.1,30.3-14c2.3-0.2,4.4,1.5,4.6,3.8c0,0.3,0,0.5,0,0.8C82.1,32,77.2,42.8,69,50.9L69,50.9z"></path> <path class="st0" d="M63.5,27c-5.2,0-9.5,4.3-9.5,9.5c0,5.2,4.3,9.5,9.5,9.5c5.2,0,9.5-4.3,9.5-9.5c0-2.5-1-4.9-2.8-6.7 C68.4,28,66,27,63.5,27z M68.1,41.1c-2.5,2.5-6.7,2.5-9.2,0c-2.5-2.5-2.5-6.7,0-9.2c2.5-2.5,6.7-2.5,9.2,0c1.2,1.2,1.9,2.9,1.9,4.6 C70,38.2,69.3,39.9,68.1,41.1z"></path> </svg> 