<?xml version="1.0" encoding="UTF-8"?> <!-- Generator: Adobe Illustrator 25.0.1, SVG Export Plug-In . SVG Version: 6.00 Build 0) --> <svg xmlns="http://www.w3.org/2000/svg" xmlns:xlink="http://www.w3.org/1999/xlink" id="Слой_1" x="0px" y="0px" viewBox="0 0 100 100" style="enable-background:new 0 0 100 100;" xml:space="preserve"> <style type="text/css"> .st0{fill:#BA1818;} </style> <path class="st0" d="M83.9,48.6c-0.1-0.1-0.3-0.2-0.4-0.2c-0.4-8.5-4.1-16.6-10.2-22.5c1.6-6.1,1.7-11.1,0.3-14.5 c-0.7-1.9-2.2-3.5-4.1-4.3c-3.3-1.4-7.8-0.5-13.2,2.8c-0.7,0.4-0.9,1.4-0.5,2.1c0.4,0.7,1.3,0.9,2,0.5c4.5-2.6,8.2-3.6,10.6-2.6 c1.1,0.5,2,1.5,2.4,2.7c1,2.5,0.9,6.4-0.1,11.1c-13.2-10.4-31.9-9.4-44,2.3l-0.2,0c-11.6-1.3-19.6,0.6-21.5,5 c-0.7,1.9-0.6,4,0.3,5.8c1.5,3.7,5.6,7.8,11.3,12c0,0.4,0,0.9,0,1.3c0,5.8,1.5,11.6,4.4,16.6c-0.1,0.1-0.2,0.3-0.2,0.4 c-2.5,10.5-1.2,17.6,3.5,19.8c1,0.5,2.1,0.7,3.1,0.7c3.5,0,7.7-2.1,12.2-5.7c13.2,4.4,27.6,0.2,36.4-10.6l0.9,0.1 c1.5,0.1,3,0.2,4.3,0.2c7.6,0,12.4-1.9,13.9-5.4C96.9,61.5,93,55.3,83.9,48.6z M50,19.5c7.3,0,14.3,2.6,19.8,7.4 c-0.9,2.9-1.9,5.8-3.1,8.5c-0.3,0.8,0,1.6,0.8,2s1.6,0,2-0.8c1.1-2.6,2-5,2.8-7.4c10,10.7,11,27.1,2.3,38.9 c-6.4-0.8-12.8-2.2-19-4.1c2.3-3.3,4.5-6.8,6.6-10.3c0.8-1.3,1.5-2.6,2.2-4c0.4-0.7,0.1-1.6-0.6-2c-0.7-0.4-1.6-0.1-2,0.6l0,0 c-0.7,1.3-1.4,2.6-2.1,3.9c-2.1,3.7-4.5,7.3-7,10.8c-2.4-0.8-5-1.7-7.5-2.7c-8.9-3.4-17.4-7.7-25.4-13C21.1,31.5,34.2,19.5,50,19.5z M8,35.5c-0.6-1.1-0.7-2.3-0.3-3.4c1-2.4,6.4-4.2,16.4-3.4c-3.9,4.7-6.4,10.5-7.3,16.6C12.4,41.8,9.2,38.4,8,35.5L8,35.5z M43.9,63.1c2.2,0.9,4.5,1.7,6.7,2.4c-3.5,4.7-7.4,9-11.7,12.9C27.5,73.9,19.8,63,19.5,50.8C27.2,55.7,35.4,59.8,43.9,63.1z M25.5,84.1c-2.9-1.4-3.7-6.6-2.3-14.1c3.4,4.6,7.9,8.2,13.1,10.5C32,83.8,28.1,85.4,25.5,84.1L25.5,84.1z M50,80.5 c-2.6,0-5.3-0.3-7.8-1c4.2-4,8.1-8.3,11.5-13c6.1,1.9,12.3,3.4,18.6,4.3C66.5,77,58.4,80.5,50,80.5z M92.3,64.9 c-1.1,2.7-6.4,4-14.3,3.5c3.2-4.9,5.1-10.5,5.4-16.4C90.1,57.2,93.4,62.1,92.3,64.9z"></path> <path class="st0" d="M24.2,44.3c4.2,2.7,8.6,5,13.2,7.1c0.8,0.3,1.6-0.1,1.9-0.9c0.3-0.7,0-1.5-0.7-1.9c-4.4-2-8.7-4.3-12.8-6.9 c-0.7-0.4-1.6-0.2-2.1,0.5C23.3,43,23.5,43.8,24.2,44.3L24.2,44.3z"></path> <path class="st0" d="M50.2,52.3c0.7,0.4,1.6,0.2,2-0.5c0.8-1.3,1.5-2.5,2.2-3.8c3.1-5.6,5.7-11.4,7.9-17.4c0.2-0.8-0.3-1.6-1-1.8 c-0.7-0.2-1.5,0.2-1.8,0.8c-2.1,5.9-4.7,11.5-7.7,17c-0.7,1.3-1.4,2.5-2.1,3.8C49.3,51,49.5,51.9,50.2,52.3z"></path> </svg> 