<?xml version="1.0" encoding="UTF-8"?> <!-- Generator: Adobe Illustrator 25.0.1, SVG Export Plug-In . SVG Version: 6.00 Build 0) --> <svg xmlns="http://www.w3.org/2000/svg" xmlns:xlink="http://www.w3.org/1999/xlink" id="Layer_1" x="0px" y="0px" viewBox="0 0 100 100" style="enable-background:new 0 0 100 100;" xml:space="preserve"> <style type="text/css"> .st0{fill:#BA1818;} </style> <path class="st0" d="M41.2,27.6l-1.8,10.7c-0.2,1,0.2,2.1,1.1,2.7c0.8,0.6,1.9,0.7,2.9,0.2l10-5l9.5,4.9c1.3,0.7,3,0.2,3.7-1.1 c0.3-0.5,0.4-1.2,0.3-1.8l-1.8-10.7l7.8-7.6c1.1-1.1,1.1-2.8,0.1-3.9c-0.4-0.4-1-0.7-1.6-0.8l-10.9-1.6L55.5,4C55,3.1,54,2.5,53,2.5 l0,0c-1,0-2,0.6-2.5,1.5l0,0l-4.8,9.8l-10.9,1.6c-1.5,0.2-2.5,1.6-2.3,3.1c0.1,0.6,0.4,1.2,0.8,1.6L41.2,27.6z M46.9,16.6 c0.5-0.1,0.9-0.4,1.1-0.8l5-10l5,10c0.2,0.4,0.6,0.7,1.1,0.8l11.1,1.6l-8,7.7c-0.4,0.3-0.5,0.8-0.4,1.3l1.9,11l-9.7-5 c-0.4-0.2-0.9-0.2-1.4,0l-10.2,5.1l1.9-11c0.1-0.5-0.1-1-0.5-1.3l-8-7.7L46.9,16.6z"></path> <path class="st0" d="M95,47c-1-1.2-2.5-1.9-4-2c-1.5-0.1-3.1,0.4-4.2,1.5L72.9,58.9c0-0.3-0.1-0.6-0.2-0.8c-0.5-1.8-1.7-3.2-3.3-4 c-2.6-1.1-6.1-0.6-9.6-0.1c-2,0.4-4.1,0.5-6.1,0.4c-0.9-0.2-1.8-0.6-2.6-1c-2.6-1.2-6.2-2.8-12.9-1.3c-3.4,0.9-6.6,2.6-9.2,5.1v-3.7 c0-0.8-0.7-1.5-1.5-1.5h-13c-0.8,0-1.5,0.7-1.5,1.5v29c0,0.8,0.7,1.5,1.5,1.5h13c0.8,0,1.5-0.7,1.5-1.5v-2.1 c2,0.5,11.1,2.6,17.8,2.6c7,0,15.6-1.6,20.8-3.9c9.7-4.2,25.7-22.4,27-23.8C97,53.1,97.1,49.4,95,47z M26,81H16V55h10V81z M92.5,53.1l-0.1,0.1c-0.2,0.2-16.7,19.1-26,23.1c-4.9,2.1-13,3.6-19.6,3.6c-7,0-17.3-2.6-17.4-2.6c-0.1,0-0.2,0-0.4,0v-16 c1.1-1.2,4.9-5.3,9.9-6.4c5.7-1.2,8.5,0,11,1.1c1.1,0.5,2.2,0.9,3.3,1.2c2.4,0.2,4.7,0.1,7.1-0.4c2.9-0.4,6.2-0.9,8-0.1 c0.8,0.4,1.3,1.2,1.6,2.1c0.3,1.2,0,2.5-0.8,3.4c-2.3,3.1-16.2,7.6-21.8,7.2c-0.8-0.1-1.6,0.6-1.6,1.4c-0.1,0.8,0.6,1.6,1.4,1.6l0,0 c0.3,0,0.7,0,1,0c6.2,0,18.1-3.7,22.4-7.3l0.1-0.1l18.2-16.4c0.5-0.5,1.3-0.7,2-0.7c0.8,0,1.5,0.4,2,1C93.8,50.2,93.7,52,92.5,53.1z "></path> </svg> 