<?xml version="1.0" encoding="UTF-8" standalone="no"?>
<!DOCTYPE svg PUBLIC "-//W3C//DTD SVG 1.1//EN" "http://www.w3.org/Graphics/SVG/1.1/DTD/svg11.dtd">
<svg version="1.1" xmlns="http://www.w3.org/2000/svg" xmlns:xlink="http://www.w3.org/1999/xlink" preserveAspectRatio="xMidYMid meet" viewBox="0 0 640 640" width="60" height="60"><defs><path d="M323.2 38.27C165.91 38.27 38.4 165.78 38.4 323.07C38.4 480.36 165.91 607.87 323.2 607.87C480.49 607.87 608 480.36 608 323.07C608 165.78 480.49 38.27 323.2 38.27Z" id="aBmh02mjV"></path><path d="M390.4 323.07C390.4 480.36 358.88 607.87 320 607.87C281.12 607.87 249.6 480.36 249.6 323.07C249.6 165.78 281.12 38.27 320 38.27C358.88 38.27 390.4 165.78 390.4 323.07Z" id="b5Uh1KFdGs"></path><path d="M505.6 323.07C505.6 480.36 422.5 607.87 320 607.87C217.5 607.87 134.4 480.36 134.4 323.07C134.4 165.78 217.5 38.27 320 38.27C422.5 38.27 505.6 165.78 505.6 323.07Z" id="gbM2n09du"></path><path d="M38.4 319.87L608 319.87" id="a1mN6Iyoc"></path></defs><g><g><g><use xlink:href="#aBmh02mjV" opacity="1" fill="#000000" fill-opacity="0"></use><g><use xlink:href="#aBmh02mjV" opacity="1" fill-opacity="0" stroke="#f87c56" stroke-width="17" stroke-opacity="1"></use></g></g><g><use xlink:href="#b5Uh1KFdGs" opacity="1" fill="#000000" fill-opacity="0"></use><g><use xlink:href="#b5Uh1KFdGs" opacity="1" fill-opacity="0" stroke="#f87c56" stroke-width="17" stroke-opacity="1"></use></g></g><g><use xlink:href="#gbM2n09du" opacity="1" fill="#000000" fill-opacity="0"></use><g><use xlink:href="#gbM2n09du" opacity="1" fill-opacity="0" stroke="#f87c56" stroke-width="17" stroke-opacity="1"></use></g></g><g><use xlink:href="#a1mN6Iyoc" opacity="1" fill="#000000" fill-opacity="0"></use><g><use xlink:href="#a1mN6Iyoc" opacity="1" fill-opacity="0" stroke="#f87c56" stroke-width="17" stroke-opacity="1"></use></g></g></g></g></svg>