<?xml version="1.0" encoding="UTF-8"?> <!-- Generator: Adobe Illustrator 25.0.1, SVG Export Plug-In . SVG Version: 6.00 Build 0) --> <svg xmlns="http://www.w3.org/2000/svg" xmlns:xlink="http://www.w3.org/1999/xlink" id="Layer_1" x="0px" y="0px" viewBox="0 0 101 101" style="enable-background:new 0 0 101 101;" xml:space="preserve"> <style type="text/css"> .st0{fill:#BA1818;} </style> <path class="st0" d="M79,64c-6.2,0-11.4,4.8-11.9,11H31.1c-1.5,0-2.6-1.2-2.6-2.6c0-0.7,0.3-1.3,0.7-1.8l44.7-39.9 c2.2-2.2,2.2-5.7,0.1-7.9c-1.1-1.1-2.5-1.7-4-1.7h-32C37.4,14.4,31.6,9.5,25,10S13.5,16.4,14,23s6.3,11.5,12.9,11 c5.5-0.4,9.9-4.5,10.8-9.9h32.1c1.5,0,2.6,1.2,2.6,2.6c0,0.7-0.3,1.3-0.7,1.8L27.2,68.4c-2.2,2.2-2.2,5.7-0.1,7.9 c1.1,1.1,2.5,1.7,4,1.7h36.1c1.1,6.5,7.3,10.9,13.8,9.8c6.5-1.1,10.9-7.3,9.8-13.8C89.9,68.2,84.9,64,79,64z M26,31c-5,0-9-4-9-9 s4-9,9-9s9,4,9,9S31,31,26,31z M79,85c-5,0-9-4-9-9s4-9,9-9s9,4,9,9S84,85,79,85z"></path> <path class="st0" d="M83.9,71.7c-0.6-0.6-1.5-0.6-2.1,0l-2.6,2.6l-2.6-2.6c-0.6-0.6-1.6-0.5-2.1,0.1c-0.5,0.6-0.5,1.5,0,2l2.6,2.6 L74.5,79c-0.6,0.6-0.6,1.5-0.1,2.1c0.6,0.6,1.5,0.6,2.1,0.1c0,0,0.1,0,0.1-0.1l2.6-2.6l2.6,2.6c0.6,0.6,1.5,0.6,2.1,0 c0.6-0.6,0.6-1.5,0-2.1l-2.6-2.6l2.6-2.6C84.5,73.3,84.5,72.3,83.9,71.7C83.9,71.7,83.9,71.7,83.9,71.7z"></path> <circle class="st0" cx="26" cy="22" r="3.5"></circle> </svg> 